<svg width="169" height="19" viewBox="0 0 169 19" fill="none" xmlns="http://www.w3.org/2000/svg">
<g clip-path="url(#clip0_770_67143)">
<path d="M50.6845 1.63965H54.1844L58.256 17.0496H55.2592L54.5283 13.9242H50.3429L49.6119 17.0496H46.6152L50.6845 1.63965ZM53.9544 11.5462L53.2463 8.57424C52.9867 7.39948 52.7271 6.10856 52.4675 4.69929H52.3764C52.1009 6.21157 51.8344 7.50249 51.5748 8.57424L50.8894 11.5462H53.9544Z" fill="#002554"/>
<path d="M59.8568 1.63965H62.6463V10.0274L63.5844 9.58682C64.0421 9.3523 64.3655 9.11341 64.5568 8.87232C64.7481 8.63123 64.9188 8.2148 65.0714 7.62961L65.6657 5.47296H68.478L67.6992 8.26959C67.4852 8.97313 67.2802 9.50572 67.0821 9.86516C66.884 10.2246 66.5789 10.5446 66.1667 10.8229L69.3911 17.054H66.2578L63.8554 11.9692L62.644 12.5413V17.054H59.8545V1.63965H59.8568Z" fill="#002554"/>
<path d="M70.926 1.63965H73.7155V6.35184C74.3554 5.99897 74.9201 5.72939 75.4074 5.53652C75.8947 5.34584 76.3912 5.24941 76.8944 5.24941C77.7643 5.24941 78.4565 5.5694 78.9757 6.20719C79.4949 6.84498 79.7545 7.70851 79.7545 8.79341V17.0496H76.965V9.25806C76.965 8.71451 76.8921 8.3222 76.7487 8.08111C76.6029 7.84002 76.3638 7.71728 76.0291 7.71728C75.724 7.71728 75.3847 7.7918 75.0112 7.93645C74.6378 8.0833 74.2074 8.28055 73.7201 8.53041V17.0496H70.9306V1.63965H70.926Z" fill="#002554"/>
<path d="M84.935 17.1504C84.0879 17.0102 83.2841 16.8173 82.5212 16.5674V1.63965H85.3107V6.15459C86.5313 5.55186 87.5605 5.2516 88.3985 5.2516C89.3139 5.2516 90.0403 5.56282 90.5823 6.18746C91.1243 6.8121 91.3952 7.68002 91.3952 8.79561V13.396C91.3952 14.7746 91.0719 15.7806 90.4229 16.4118C89.7739 17.043 88.7333 17.3586 87.3009 17.3586C86.57 17.3586 85.7798 17.2885 84.9327 17.1504H84.935ZM87.0505 14.9609C87.6607 14.9609 88.0752 14.8513 88.2961 14.63C88.5169 14.4108 88.6285 14.0141 88.6285 13.442V9.23833C88.6285 8.68164 88.5511 8.28494 88.4008 8.05042C88.2482 7.81591 87.9978 7.69756 87.6471 7.69756C87.0823 7.69756 86.2967 7.95399 85.2902 8.46904V14.7439C85.9005 14.8908 86.488 14.9631 87.0505 14.9631V14.9609Z" fill="#002554"/>
<path d="M94.335 16.4336C93.809 15.8462 93.5471 14.952 93.5471 13.7487C93.5471 12.5455 93.834 11.6052 94.4056 11.0178C94.9772 10.4304 95.8652 10.1368 97.0699 10.1368H99.4495V8.85898C99.4495 8.33078 99.347 7.97134 99.1398 7.78066C98.9348 7.58998 98.5409 7.49354 97.9625 7.49354C97.3841 7.49354 97.0129 7.58559 96.808 7.76751C96.603 7.95161 96.4983 8.29352 96.4983 8.79104V8.94446H93.891V8.79104C93.891 7.50012 94.2075 6.56864 94.8405 5.99441C95.4736 5.42237 96.5142 5.13525 97.9625 5.13525C99.4108 5.13525 100.506 5.42456 101.153 6.00537C101.802 6.58617 102.125 7.55053 102.125 8.90062V17.045H100.158L99.7683 16.0325C98.5933 16.8829 97.5116 17.3102 96.5211 17.3102C95.592 17.3102 94.8633 17.0166 94.3373 16.4292L94.335 16.4336ZM96.4619 14.6714C96.6372 14.8774 96.8922 14.9804 97.227 14.9804C97.7917 14.9804 98.5318 14.7153 99.4449 14.187L99.4677 12.0742H97.6369C97.1177 12.0742 96.7488 12.1926 96.5279 12.4271C96.307 12.6616 96.1954 13.0517 96.1954 13.5931C96.1954 14.106 96.282 14.4654 96.4596 14.6714H96.4619Z" fill="#002554"/>
<path d="M104.912 5.47082H107.107L107.406 6.52723C108.792 5.6615 109.808 5.22754 110.448 5.22754H111.133V7.89048H110.539C110.159 7.89048 109.703 7.99349 109.177 8.19951C108.651 8.40553 108.159 8.6247 107.702 8.85921V17.0475H104.912V5.47082Z" fill="#002554"/>
<path d="M117.607 1.63965H120.558L124.081 9.25587H124.127L127.672 1.63965H130.601V17.0496H127.788V11.1933C127.788 9.74024 127.85 8.30905 127.97 6.89977H127.857L124.883 13.2842H123.327L120.353 6.87785H120.262C120.369 8.35945 120.422 9.79941 120.422 11.1933V17.0496H117.609V1.63965H117.607Z" fill="#002554"/>
<path d="M134.463 16.4117C133.791 15.7804 133.456 14.7832 133.456 13.4178V9.03652C133.456 7.68642 133.8 6.70015 134.485 6.07551C135.171 5.45087 136.268 5.13965 137.778 5.13965C139.197 5.13965 140.26 5.4158 140.968 5.96593C141.677 6.51605 142.032 7.33575 142.032 8.42065V9.05844C142.032 9.968 141.815 10.6518 141.38 11.1055C140.946 11.5614 140.233 11.8682 139.242 12.0304L136.154 12.5586V13.4178C136.154 14.0336 136.268 14.4523 136.498 14.6736C136.726 14.8928 137.161 15.0046 137.803 15.0046C138.445 15.0046 138.832 14.9059 139.06 14.7065C139.288 14.5092 139.404 14.1454 139.404 13.6172V13.3739H141.988V13.7049C141.988 14.9673 141.654 15.8922 140.982 16.4796C140.31 17.067 139.229 17.3607 137.735 17.3607C136.241 17.3607 135.134 17.0451 134.465 16.4138L134.463 16.4117ZM138.213 10.2047C138.671 10.1324 138.987 10.0096 139.163 9.84088C139.338 9.67212 139.424 9.41131 139.424 9.05844V8.6179C139.424 8.2212 139.301 7.93847 139.058 7.76971C138.814 7.60095 138.395 7.51547 137.801 7.51547C137.161 7.51547 136.726 7.62506 136.496 7.84642C136.268 8.06559 136.152 8.47106 136.152 9.05625V10.5532L138.211 10.2003L138.213 10.2047Z" fill="#002554"/>
<path d="M145.842 16.2803C145.254 15.7083 144.96 14.8272 144.96 13.6393V7.80497H143.337V5.4927H145.051V3.09277H147.75V5.4927H150.129V7.80497H147.75V13.2426C147.75 13.8015 147.836 14.1741 148.014 14.3648C148.189 14.5555 148.544 14.6519 149.077 14.6519H150.129V17.1395H148.574C147.34 17.1395 146.427 16.8524 145.842 16.2803Z" fill="#002554"/>
<path d="M152.876 16.4117C152.204 15.7804 151.869 14.7832 151.869 13.4178V9.03652C151.869 7.68642 152.213 6.70015 152.898 6.07551C153.584 5.45087 154.681 5.13965 156.191 5.13965C157.61 5.13965 158.673 5.4158 159.381 5.96593C160.09 6.51605 160.445 7.33575 160.445 8.42065V9.05844C160.445 9.968 160.229 10.6518 159.794 11.1055C159.359 11.5614 158.646 11.8682 157.655 12.0304L154.568 12.5586V13.4178C154.568 14.0336 154.681 14.4523 154.911 14.6736C155.139 14.8928 155.574 15.0046 156.216 15.0046C156.858 15.0046 157.245 14.9059 157.473 14.7065C157.701 14.5092 157.817 14.1454 157.817 13.6172V13.3739H160.402V13.7049C160.402 14.9673 160.067 15.8922 159.395 16.4796C158.723 17.067 157.642 17.3607 156.148 17.3607C154.654 17.3607 153.547 17.0451 152.878 16.4138L152.876 16.4117ZM156.626 10.2047C157.084 10.1324 157.4 10.0096 157.576 9.84088C157.751 9.67212 157.838 9.41131 157.838 9.05844V8.6179C157.838 8.2212 157.715 7.93847 157.471 7.76971C157.227 7.60095 156.808 7.51547 156.214 7.51547C155.574 7.51547 155.139 7.62506 154.909 7.84642C154.681 8.06559 154.565 8.47106 154.565 9.05625V10.5532L156.624 10.2003L156.626 10.2047Z" fill="#002554"/>
<path d="M162.779 5.47082H164.974L165.272 6.52723C166.659 5.6615 167.675 5.22754 168.315 5.22754H169V7.89048H168.406C168.025 7.89048 167.57 7.99349 167.044 8.19951C166.518 8.40553 166.026 8.6247 165.568 8.85921V17.0475H162.779V5.47082Z" fill="#002554"/>
<path d="M23.1904 9.55801L23.4227 9.32568L23.1904 9.55801Z" fill="#1226AA"/>
<path d="M33.8975 8.52148C33.8542 8.6223 33.8292 8.75381 33.8269 8.89627C33.8315 8.73846 33.8656 8.61134 33.8975 8.52148Z" fill="#1226AA"/>
<path d="M33.8292 8.55853C33.8725 8.5147 33.9021 8.48182 33.9226 8.45991L33.9317 8.43799L32.4128 10.0007L33.8292 8.55853Z" fill="#1226AA"/>
<path d="M42.0247 11.5461L36.8533 8.84375L31.3335 14.6167L33.9499 11.9582V16.9663C33.9499 17.615 34.353 18.1892 34.9769 18.4303C35.5394 18.6473 36.1633 18.5487 36.621 18.1849L42.1681 14.7176C42.7374 14.3625 43.0699 13.7335 43.0357 13.0803C43.0015 12.4272 42.6076 11.8354 42.0269 11.5461H42.0247ZM36.4639 15.3948V11.3971L39.9479 13.2162L36.4639 15.3948ZM40.8269 13.6765C40.8269 13.6765 40.8405 13.6831 40.8474 13.6874C40.8405 13.6831 40.8337 13.6809 40.8269 13.6765Z" fill="#1850EB"/>
<path d="M36.4638 8.64205V5.83008L33.9294 8.43822L33.9203 8.46014C33.8998 8.48206 33.8702 8.51493 33.8269 8.55877L32.4105 10.0009L26.5013 16.0084C26.1393 16.3722 25.636 16.5805 25.1168 16.5805H23.1881V12.9115L20.6719 15.432V17.0582C20.6719 18.13 21.5782 19.0001 22.6894 19.0001H25.1146C26.3146 19.0001 27.4828 18.5201 28.3208 17.6763L31.3289 14.6189L36.8487 8.84588L36.4593 8.64205H36.4638ZM33.8269 8.89848C33.8269 8.75383 33.8542 8.62452 33.8975 8.5237C33.8656 8.61356 33.8337 8.74068 33.8269 8.89848Z" fill="#32CD32"/>
<path d="M31.7251 -1.10962e-05C30.1494 -1.10962e-05 28.6168 0.629012 27.5193 1.72706L23.1904 6.06228V4.53684C23.1904 2.0339 21.0886 -0.00220281 18.5041 -0.00220281H17.7617C16.5594 -0.00220281 15.3935 0.477783 14.5328 1.3457L0.735584 16.1749C0.05472 16.8762 -0.157054 17.571 0.11848 18.1847C0.334808 18.6647 0.817561 18.9671 1.38912 18.9912C1.41417 18.9912 1.43922 18.9956 1.46427 18.9956H12.3034C13.2325 18.9956 14.1343 18.6252 14.7787 17.9808L20.6742 12.0742V15.4253L23.1904 12.9048V9.55369L23.4227 9.32136L29.3341 3.40153C29.9581 2.7769 30.8302 2.41745 31.7251 2.41745C32.9502 2.41745 33.9476 3.39058 33.9476 4.58725V8.38331L33.9294 8.43372L36.4639 5.82557V4.58725C36.4639 2.05582 34.337 -0.00439453 31.7251 -0.00439453V-1.10962e-05ZM12.9638 16.3064C12.7907 16.4795 12.5516 16.5781 12.3034 16.5781H3.73685L6.43754 13.6763L16.3795 2.99168C16.7393 2.62786 17.2448 2.41965 17.7617 2.41965H18.5041C19.6996 2.41965 20.6742 3.36866 20.6742 4.53684V8.58056L12.9638 16.3042V16.3064Z" fill="#1850EB"/>
</g>
<defs>
<clipPath id="clip0_770_67143">
<rect width="169" height="19" fill="white"/>
</clipPath>
</defs>
</svg>
