<svg width="247" height="110" viewBox="0 0 247 110" fill="none" xmlns="http://www.w3.org/2000/svg">
<path d="M132.799 55.348L134.127 54.0195L132.799 55.348Z" fill="#1226AA"/>
<path d="M194.023 49.418C193.775 49.9945 193.632 50.7464 193.619 51.561C193.645 50.6587 193.84 49.9318 194.023 49.418Z" fill="#1226AA"/>
<path d="M193.634 49.619C193.881 49.3683 194.051 49.1803 194.168 49.055L194.22 48.9297L185.535 57.8652L193.634 49.619Z" fill="#1226AA"/>
<path d="M240.492 66.7023L210.922 51.25L179.359 84.2601L194.32 69.0584V97.6947C194.32 101.404 196.625 104.688 200.193 106.066C203.409 107.307 206.976 106.743 209.593 104.663L241.312 84.8365C244.567 82.8063 246.468 79.2095 246.273 75.4749C246.078 71.7403 243.825 68.3566 240.505 66.7023H240.492ZM208.695 88.709V65.8501L228.617 76.2519L208.695 88.709ZM233.643 78.8837C233.643 78.8837 233.721 78.9213 233.76 78.9464C233.721 78.9213 233.682 78.9088 233.643 78.8837Z" fill="#1850EB"/>
<path d="M208.691 50.1102V34.0312L194.199 48.9447L194.147 49.07C194.03 49.1953 193.861 49.3833 193.613 49.6339L185.514 57.8802L151.726 92.2312C149.655 94.3116 146.778 95.5021 143.809 95.5021H132.78V74.5231L118.393 88.9352V98.2342C118.393 104.362 123.575 109.338 129.929 109.338H143.796C150.658 109.338 157.338 106.593 162.129 101.768L179.33 84.2857L210.892 51.2757L208.665 50.1102H208.691ZM193.613 51.5765C193.613 50.7493 193.77 50.0099 194.017 49.4334C193.835 49.9473 193.652 50.6741 193.613 51.5765Z" fill="#32CD32"/>
<path d="M181.599 0.685221C172.589 0.685221 163.826 4.28199 157.55 10.5607L132.798 35.3495V26.6271C132.798 12.3152 120.779 0.672689 106.001 0.672689H101.756C94.8812 0.672689 88.2146 3.41726 83.2928 8.38005L4.40028 93.1735C0.507082 97.1838 -0.703845 101.157 0.871662 104.666C2.10863 107.41 4.86902 109.14 8.13722 109.277C8.28045 109.277 8.42368 109.303 8.56691 109.303H70.5455C75.858 109.303 81.0142 107.185 84.6991 103.5L118.41 69.7256V88.8875L132.798 74.4753V55.3135L134.126 53.985L167.927 20.1353C171.495 16.5636 176.482 14.5083 181.599 14.5083C188.604 14.5083 194.307 20.0727 194.307 26.9153V48.6212L194.203 48.9095L208.695 33.996V26.9153C208.695 12.4405 196.534 0.660156 181.599 0.660156V0.685221ZM74.3215 93.9254C73.332 94.9155 71.9648 95.4794 70.5455 95.4794H21.5616L37.0042 78.8867L93.8526 17.7918C95.9099 15.7114 98.8005 14.5209 101.756 14.5209H106.001C112.837 14.5209 118.41 19.9473 118.41 26.6271V49.7491L74.3215 93.9129V93.9254Z" fill="#1850EB"/>
</svg>
