<svg width="160" height="22" viewBox="0 0 160 22" fill="none" xmlns="http://www.w3.org/2000/svg">
<path d="M139.154 11.0629L139.387 10.8184L139.154 11.0629Z" fill="white"/>
<path d="M149.862 9.97266C149.818 10.0788 149.793 10.2172 149.791 10.3672C149.796 10.2011 149.83 10.0672 149.862 9.97266Z" fill="white"/>
<path d="M149.793 10.0117C149.837 9.96551 149.866 9.93091 149.887 9.90784L149.896 9.88477L148.377 11.5297L149.793 10.0117Z" fill="white"/>
<path d="M157.988 13.1571L152.817 10.3125L147.297 16.3893L149.913 13.5908V18.8625C149.913 19.5454 150.316 20.1499 150.94 20.4036C151.503 20.632 152.127 20.5282 152.584 20.1452L158.131 16.4955C158.701 16.1217 159.033 15.4596 158.999 14.7721C158.965 14.0846 158.571 13.4617 157.99 13.1571H157.988ZM152.427 17.2083V13.0002L155.911 14.9151L152.427 17.2083ZM156.79 15.3996C156.79 15.3996 156.804 15.4065 156.811 15.4111C156.804 15.4065 156.797 15.4042 156.79 15.3996Z" fill="white"/>
<path d="M152.427 10.0986V7.13867L149.892 9.88409L149.883 9.90716C149.863 9.93023 149.833 9.96483 149.79 10.011L148.373 11.529L142.464 17.8527C142.102 18.2357 141.599 18.4549 141.08 18.4549H139.151V14.5928L136.635 17.246V18.9578C136.635 20.086 137.541 21.0019 138.652 21.0019H141.077C142.278 21.0019 143.446 20.4966 144.284 19.6084L147.292 16.39L152.812 10.3132L152.422 10.0986H152.427ZM149.79 10.3686C149.79 10.2163 149.817 10.0802 149.86 9.97406C149.828 10.0687 149.797 10.2025 149.79 10.3686Z" fill="#32CD32"/>
<path d="M147.689 1.00266C146.113 1.00266 144.58 1.66479 143.483 2.82063L139.154 7.38402V5.7783C139.154 3.14362 137.052 1.00035 134.468 1.00035H133.725C132.523 1.00035 131.357 1.5056 130.496 2.4192L116.699 18.0288C116.018 18.7671 115.807 19.4984 116.082 20.1444C116.298 20.6497 116.781 20.9681 117.353 20.9934C117.378 20.9934 117.403 20.998 117.428 20.998H128.267C129.196 20.998 130.098 20.6082 130.742 19.9299L136.638 13.7123V17.2398L139.154 14.5867V11.0592L139.386 10.8146L145.298 4.58324C145.922 3.92572 146.794 3.54736 147.689 3.54736C148.914 3.54736 149.911 4.5717 149.911 5.83136V9.82721L149.893 9.88027L152.427 7.13486V5.83136C152.427 3.16669 150.301 0.998047 147.689 0.998047V1.00266ZM128.927 18.1673C128.754 18.3495 128.515 18.4533 128.267 18.4533H119.7L122.401 15.3988L132.343 4.15181C132.703 3.76884 133.208 3.54967 133.725 3.54967H134.468C135.663 3.54967 136.638 4.54863 136.638 5.7783V10.0348L128.927 18.165V18.1673Z" fill="white"/>
<path d="M1.42388 16.1989C1.76434 15.9046 2.0644 15.6507 2.32407 15.443C2.80301 14.9871 3.16078 14.5832 3.39737 14.2254C3.63395 13.8677 3.74936 13.5618 3.74936 13.3022C3.74936 13.0079 3.59356 12.6213 3.28773 12.1481L2.50295 11.1613L4.78804 9.21094L5.79209 10.5208C6.19025 10.9248 6.67496 11.1267 7.24623 11.1267V14.2023C6.97502 14.2023 6.73844 14.185 6.53647 14.1446C6.32874 15.0448 5.74016 16.0027 4.7765 17.0068L2.20866 19.2341L0.414062 17.076C0.748747 16.776 1.08343 16.4759 1.42388 16.1816V16.1989Z" fill="white"/>
<path d="M8.32613 11.09C8.66658 11.0611 8.91471 11.0323 9.07051 11.0034C9.38211 10.8707 9.53791 10.5591 9.53791 10.0801L9.48598 8.90874C9.42251 8.29707 9.39365 7.69118 9.39365 7.09683H12.1923C12.1865 7.30456 12.175 7.57577 12.1635 7.91046C12.1519 8.24514 12.1461 8.56251 12.1461 8.8568L12.0654 10.0167C12.0654 10.4956 12.1923 10.8014 12.452 10.9342C12.7116 11.0669 13.2771 11.1303 14.1485 11.1303V14.206H12.8097C12.3943 14.206 12.0192 14.1483 11.6903 14.0271C11.3614 13.9059 11.0786 13.7328 10.8363 13.5078C10.3227 13.9752 9.6764 14.206 8.90894 14.206H6.98162L6.92969 11.1303C7.51827 11.1303 7.98567 11.1188 8.32613 11.09ZM8.28574 3.74422C8.5454 3.49032 8.83969 3.36914 9.16861 3.36914C9.53214 3.36914 9.83221 3.49609 10.0688 3.74422C10.3054 3.99812 10.4266 4.29241 10.4266 4.62709C10.4266 4.96177 10.2996 5.26184 10.0515 5.50996C9.80335 5.76386 9.50906 5.88504 9.16284 5.88504C8.81661 5.88504 8.52232 5.76386 8.26842 5.51573C8.01453 5.26761 7.89335 4.97332 7.89335 4.62132C7.89335 4.26933 8.0203 3.97503 8.27996 3.73845L8.28574 3.74422ZM11.4479 3.73845C11.7018 3.49032 11.9961 3.36914 12.3308 3.36914C12.6655 3.36914 12.9713 3.49609 13.2079 3.74422C13.3522 3.88848 13.456 4.0212 13.5137 4.15392C13.5714 4.28664 13.5945 4.44244 13.5945 4.62709C13.5945 4.96755 13.4733 5.26761 13.2367 5.52728C12.9713 5.76386 12.6712 5.88504 12.3366 5.88504C12.0019 5.88504 11.6903 5.76386 11.4422 5.51573C11.194 5.26761 11.0728 4.97332 11.0728 4.62132C11.0728 4.26933 11.1998 3.97503 11.4479 3.72691V3.73845Z" fill="white"/>
<path d="M13.9102 11.1387H19.4671V14.2143H13.9102V11.1387Z" fill="white"/>
<path d="M19.1152 11.1387H24.6721V14.2201H19.1152V11.1387Z" fill="white"/>
<path d="M24.3203 11.1387H29.8772V14.2143H24.3203V11.1387Z" fill="white"/>
<path d="M29.5254 11.1426H35.0823V14.2182H29.5254V11.1426Z" fill="white"/>
<path d="M34.7305 11.1426H40.2874V14.2182H34.7305V11.1426Z" fill="white"/>
<path d="M40 11.1429C40.8656 11.1429 41.4253 11.0794 41.6792 10.9582C41.9331 10.8371 42.06 10.537 42.06 10.0638L42.0081 8.92129C42.0081 8.69624 41.9966 8.37887 41.9735 7.97494C41.9504 7.57101 41.9389 7.28249 41.9389 7.10938H44.7375L44.6798 8.86935L44.6163 10.0119C44.6163 10.4966 44.7433 10.8082 44.9914 10.9409C45.2453 11.0737 45.7762 11.1429 46.5956 11.1429V14.2185H45.3319C44.5009 14.2185 43.8431 13.9819 43.3526 13.5203C42.8333 13.9877 42.187 14.2185 41.4195 14.2185H40V11.1429ZM40.9752 15.99C41.2176 15.7535 41.4888 15.6323 41.7946 15.6323C42.1293 15.6323 42.4063 15.7535 42.6429 15.9843C42.8737 16.2209 42.9948 16.5094 42.9948 16.8441C42.9948 17.1614 42.8794 17.4384 42.6429 17.675C42.3601 17.9116 42.0773 18.0328 41.7946 18.0328C41.483 18.0328 41.206 17.9116 40.9694 17.6635C40.7328 17.4153 40.6174 17.1441 40.6174 16.8441C40.6174 16.5152 40.7386 16.2266 40.9752 15.99ZM44.0335 16.0477C44.2874 15.8227 44.5644 15.7073 44.8645 15.7073C45.1934 15.7073 45.4761 15.8227 45.7012 16.0477C45.9262 16.2728 46.0416 16.5613 46.0416 16.9018C46.0416 17.2191 45.9204 17.5019 45.6839 17.7327C45.4415 17.9693 45.1703 18.0847 44.8645 18.0847C44.5471 18.0847 44.2643 17.9693 44.0278 17.7327C43.7912 17.5019 43.6758 17.2191 43.6758 16.896C43.6758 16.5613 43.7969 16.2786 44.0335 16.042V16.0477Z" fill="white"/>
<path d="M46.3574 11.1508C46.8941 11.1508 47.3961 10.8912 47.8693 10.3776L49.2542 8.92922C49.9351 8.40411 50.7372 8.13867 51.6604 8.13867C52.8434 8.13867 53.8474 8.55414 54.6726 9.37931C55.4978 10.2045 55.9075 11.197 55.9075 12.3626C55.9075 13.5225 55.4862 14.5207 54.6437 15.3517C53.8013 16.1826 52.8087 16.5981 51.6604 16.5981C51.2161 16.5981 50.8006 16.5346 50.4025 16.4077C50.0043 16.2807 49.5196 16.0326 48.9483 15.6575C48.3713 15.2824 47.9616 14.6823 47.7077 13.8514C47.3384 14.1053 46.8883 14.2265 46.3632 14.2265V11.1508H46.3574ZM50.7776 13.2339C51.0488 13.459 51.3373 13.5744 51.6547 13.5744C51.9951 13.5744 52.2779 13.4532 52.5145 13.2051C52.751 12.9627 52.8664 12.68 52.8722 12.3568C52.8722 12.0048 52.7568 11.7163 52.5202 11.474C52.2894 11.2374 52.0009 11.122 51.6547 11.122C51.3373 11.122 51.0488 11.2374 50.7949 11.474C50.541 11.7048 50.414 12.0048 50.414 12.3568C50.414 12.7088 50.5352 12.9974 50.7833 13.2339H50.7776Z" fill="white"/>
<path d="M62.2673 15.4377C63.2195 14.5376 63.6984 13.8336 63.6984 13.3315C63.6984 13.0315 63.5426 12.6506 63.231 12.2005L62.4404 11.1965L64.7255 9.24609C65.9489 10.8041 66.5605 12.2409 66.5605 13.5566C66.5605 14.301 66.3759 14.9357 66.0066 15.4608C65.6373 15.9859 65.3026 16.4129 65.0083 16.7361C64.7082 17.0592 64.3678 17.3939 63.9812 17.7401L62.1635 19.2751L60.3516 17.1169L62.2789 15.4435L62.2673 15.4377Z" fill="white"/>
<path d="M68.6895 2.9082H71.4593V10.5078C71.4593 10.9406 71.7074 11.1541 72.1979 11.1541V14.2298C71.165 14.2298 70.3225 13.9585 69.6704 13.4104C69.0184 12.8622 68.6895 12.0832 68.6895 11.0676V2.9082Z" fill="white"/>
<path d="M72.002 11.1543H77.5589V14.2357H72.002V11.1543Z" fill="white"/>
<path d="M77.207 11.1543H82.7639V14.2299H77.207V11.1543Z" fill="white"/>
<path d="M82.4121 11.1543H87.969V14.2299H82.4121V11.1543Z" fill="white"/>
<path d="M87.6172 11.1602H93.1741V14.2358H87.6172V11.1602Z" fill="white"/>
<path d="M92.832 11.1605C93.3225 11.1605 93.5706 10.9354 93.5706 10.4796V7.12695H96.3751V10.4449C96.3751 10.9239 96.6116 11.1662 97.0848 11.1662V14.2419C96.629 14.2419 96.225 14.1842 95.8788 14.063C95.5268 13.9418 95.2325 13.7687 94.9844 13.5437C94.4939 14.0111 93.8534 14.2419 93.0571 14.2419H92.8378V11.1662L92.832 11.1605ZM93.8476 16.4058C93.9111 16.2673 94.0323 16.0999 94.2227 15.898C94.4131 15.696 94.6728 15.5979 95.0017 15.5979C95.371 15.5979 95.6768 15.7249 95.9192 15.9788C96.1616 16.2327 96.2827 16.5443 96.2827 16.902C96.2827 17.2367 96.1558 17.5252 95.9019 17.7791C95.648 18.033 95.3479 18.16 95.0017 18.16C94.6497 18.16 94.3612 18.033 94.1361 17.7734C93.8822 17.5195 93.7611 17.2309 93.7611 16.8963C93.7611 16.7001 93.7899 16.5327 93.8534 16.3942L93.8476 16.4058Z" fill="white"/>
<path d="M96.8202 11.161H101.05L100.369 10.1742C100.04 9.76451 99.717 9.55678 99.4111 9.55678C99.1399 9.55678 98.8514 9.64911 98.5456 9.83953L97.4954 7.39865C98.2744 6.97163 99.0245 6.75236 99.7401 6.75236C100.663 6.75236 101.454 7.13321 102.123 7.8949L103.681 10.0242C104.356 10.7801 105.13 11.1552 106.001 11.1552L105.464 14.2308H96.8145V11.1494L96.8202 11.161ZM98.511 3.49784C98.5687 3.35935 98.6898 3.19201 98.8803 3.00736C99.0707 2.82271 99.3361 2.72461 99.6881 2.72461C100.023 2.72461 100.317 2.85156 100.571 3.09969C100.802 3.36513 100.923 3.67096 100.923 4.02295C100.923 4.3461 100.808 4.64616 100.571 4.90583C100.311 5.15972 100.017 5.2809 99.6881 5.2809C99.3592 5.2809 99.0418 5.14818 98.7822 4.88274C98.5225 4.61731 98.3898 4.32878 98.3898 4.01718C98.4129 3.80945 98.459 3.63633 98.5167 3.49207L98.511 3.49784Z" fill="white"/>
<path d="M107.426 2.91992H110.224V14.2415H107.426V2.91992Z" fill="white"/>
</svg>
