<svg width="159" height="22" viewBox="0 0 159 22" fill="none" xmlns="http://www.w3.org/2000/svg">
<path d="M139.154 11.0629L139.387 10.8184L139.154 11.0629Z" fill="#002554"/>
<path d="M149.862 9.97266C149.818 10.0788 149.793 10.2172 149.791 10.3672C149.796 10.2011 149.83 10.0672 149.862 9.97266Z" fill="#002554"/>
<path d="M149.793 10.0117C149.837 9.96551 149.866 9.93091 149.887 9.90784L149.896 9.88477L148.377 11.5297L149.793 10.0117Z" fill="#002554"/>
<path d="M157.988 13.1571L152.817 10.3125L147.297 16.3893L149.913 13.5908V18.8625C149.913 19.5454 150.316 20.1499 150.94 20.4036C151.503 20.632 152.127 20.5282 152.584 20.1452L158.131 16.4955C158.701 16.1217 159.033 15.4596 158.999 14.7721C158.965 14.0846 158.571 13.4617 157.99 13.1571H157.988ZM152.427 17.2083V13.0002L155.911 14.9151L152.427 17.2083ZM156.79 15.3996C156.79 15.3996 156.804 15.4065 156.811 15.4111C156.804 15.4065 156.797 15.4042 156.79 15.3996Z" fill="#002554"/>
<path d="M152.427 10.0986V7.13867L149.892 9.88409L149.883 9.90716C149.863 9.93023 149.833 9.96483 149.79 10.011L148.373 11.529L142.464 17.8527C142.102 18.2357 141.599 18.4549 141.08 18.4549H139.151V14.5928L136.635 17.246V18.9578C136.635 20.086 137.541 21.0019 138.652 21.0019H141.077C142.278 21.0019 143.446 20.4966 144.284 19.6084L147.292 16.39L152.812 10.3132L152.422 10.0986H152.427ZM149.79 10.3686C149.79 10.2163 149.817 10.0802 149.86 9.97406C149.828 10.0687 149.797 10.2025 149.79 10.3686Z" fill="#32CD32"/>
<path d="M147.689 1.00266C146.113 1.00266 144.58 1.66479 143.483 2.82063L139.154 7.38402V5.7783C139.154 3.14362 137.052 1.00035 134.468 1.00035H133.725C132.523 1.00035 131.357 1.5056 130.496 2.4192L116.699 18.0288C116.018 18.7671 115.807 19.4984 116.082 20.1444C116.298 20.6497 116.781 20.9681 117.353 20.9934C117.378 20.9934 117.403 20.998 117.428 20.998H128.267C129.196 20.998 130.098 20.6082 130.742 19.9299L136.638 13.7123V17.2398L139.154 14.5867V11.0592L139.386 10.8146L145.298 4.58324C145.922 3.92572 146.794 3.54736 147.689 3.54736C148.914 3.54736 149.911 4.5717 149.911 5.83136V9.82721L149.893 9.88027L152.427 7.13486V5.83136C152.427 3.16669 150.301 0.998047 147.689 0.998047V1.00266ZM128.927 18.1673C128.754 18.3495 128.515 18.4533 128.267 18.4533H119.7L122.401 15.3988L132.343 4.15181C132.703 3.76884 133.208 3.54967 133.725 3.54967H134.468C135.663 3.54967 136.638 4.54863 136.638 5.7783V10.0348L128.927 18.165V18.1673Z" fill="#002554"/>
<path d="M1.42388 18.6872C1.76434 18.3929 2.0644 18.139 2.32407 17.9313C2.80301 17.4754 3.16078 17.0715 3.39737 16.7137C3.63395 16.3559 3.74936 16.0501 3.74936 15.7904C3.74936 15.4962 3.59356 15.1095 3.28773 14.6364L2.50295 13.6496L4.78804 11.6992L5.79209 13.0091C6.19025 13.413 6.67496 13.615 7.24623 13.615V16.6906C6.97502 16.6906 6.73844 16.6733 6.53647 16.6329C6.32874 17.5331 5.74016 18.491 4.7765 19.495L2.20866 21.7224L0.414062 19.5643C0.748747 19.2642 1.08343 18.9642 1.42388 18.6699V18.6872Z" fill="#002554"/>
<path d="M8.32613 13.5782C8.66658 13.5494 8.91471 13.5205 9.07051 13.4917C9.38211 13.359 9.53791 13.0474 9.53791 12.5684L9.48598 11.397C9.42251 10.7854 9.39365 10.1795 9.39365 9.58511H12.1923C12.1865 9.79284 12.175 10.0641 12.1635 10.3987C12.1519 10.7334 12.1461 11.0508 12.1461 11.3451L12.0654 12.5049C12.0654 12.9839 12.1923 13.2897 12.452 13.4224C12.7116 13.5552 13.2771 13.6186 14.1485 13.6186V16.6943H12.8097C12.3943 16.6943 12.0192 16.6366 11.6903 16.5154C11.3614 16.3942 11.0786 16.2211 10.8363 15.996C10.3227 16.4634 9.6764 16.6943 8.90894 16.6943H6.98162L6.92969 13.6186C7.51827 13.6186 7.98567 13.6071 8.32613 13.5782ZM8.28574 6.2325C8.5454 5.9786 8.83969 5.85742 9.16861 5.85742C9.53214 5.85742 9.83221 5.98437 10.0688 6.2325C10.3054 6.4864 10.4266 6.78069 10.4266 7.11537C10.4266 7.45006 10.2996 7.75012 10.0515 7.99825C9.80335 8.25214 9.50906 8.37332 9.16284 8.37332C8.81661 8.37332 8.52232 8.25214 8.26842 8.00402C8.01453 7.75589 7.89335 7.4616 7.89335 7.1096C7.89335 6.75761 8.0203 6.46332 8.27996 6.22673L8.28574 6.2325ZM11.4479 6.22673C11.7018 5.9786 11.9961 5.85742 12.3308 5.85742C12.6655 5.85742 12.9713 5.98437 13.2079 6.2325C13.3522 6.37676 13.456 6.50948 13.5137 6.6422C13.5714 6.77492 13.5945 6.93072 13.5945 7.11537C13.5945 7.45583 13.4733 7.75589 13.2367 8.01556C12.9713 8.25214 12.6712 8.37332 12.3366 8.37332C12.0019 8.37332 11.6903 8.25214 11.4422 8.00402C11.194 7.75589 11.0728 7.4616 11.0728 7.1096C11.0728 6.75761 11.1998 6.46332 11.4479 6.21519V6.22673Z" fill="#002554"/>
<path d="M13.9102 13.627H19.4671V16.7026H13.9102V13.627Z" fill="#002554"/>
<path d="M19.1152 13.627H24.6721V16.7084H19.1152V13.627Z" fill="#002554"/>
<path d="M24.3203 13.627H29.8772V16.7026H24.3203V13.627Z" fill="#002554"/>
<path d="M29.5254 13.6309H35.0823V16.7065H29.5254V13.6309Z" fill="#002554"/>
<path d="M34.7305 13.6309H40.2874V16.7065H34.7305V13.6309Z" fill="#002554"/>
<path d="M40 13.6312C40.8656 13.6312 41.4253 13.5677 41.6792 13.4465C41.9331 13.3253 42.06 13.0253 42.06 12.5521L42.0081 11.4096C42.0081 11.1845 41.9966 10.8671 41.9735 10.4632C41.9504 10.0593 41.9389 9.77077 41.9389 9.59766H44.7375L44.6798 11.3576L44.6163 12.5002C44.6163 12.9849 44.7433 13.2965 44.9914 13.4292C45.2453 13.5619 45.7762 13.6312 46.5956 13.6312V16.7068H45.3319C44.5009 16.7068 43.8431 16.4702 43.3526 16.0086C42.8333 16.476 42.187 16.7068 41.4195 16.7068H40V13.6312ZM40.9752 18.4783C41.2176 18.2417 41.4888 18.1206 41.7946 18.1206C42.1293 18.1206 42.4063 18.2417 42.6429 18.4726C42.8737 18.7091 42.9948 18.9977 42.9948 19.3323C42.9948 19.6497 42.8794 19.9267 42.6429 20.1633C42.3601 20.3999 42.0773 20.5211 41.7946 20.5211C41.483 20.5211 41.206 20.3999 40.9694 20.1517C40.7328 19.9036 40.6174 19.6324 40.6174 19.3323C40.6174 19.0034 40.7386 18.7149 40.9752 18.4783ZM44.0335 18.536C44.2874 18.311 44.5644 18.1956 44.8645 18.1956C45.1934 18.1956 45.4761 18.311 45.7012 18.536C45.9262 18.7611 46.0416 19.0496 46.0416 19.39C46.0416 19.7074 45.9204 19.9902 45.6839 20.221C45.4415 20.4576 45.1703 20.573 44.8645 20.573C44.5471 20.573 44.2643 20.4576 44.0278 20.221C43.7912 19.9902 43.6758 19.7074 43.6758 19.3843C43.6758 19.0496 43.7969 18.7668 44.0335 18.5303V18.536Z" fill="#002554"/>
<path d="M46.3574 13.6391C46.8941 13.6391 47.3961 13.3794 47.8693 12.8659L49.2542 11.4175C49.9351 10.8924 50.7372 10.627 51.6604 10.627C52.8434 10.627 53.8474 11.0424 54.6726 11.8676C55.4978 12.6928 55.9075 13.6853 55.9075 14.8509C55.9075 16.0108 55.4862 17.009 54.6437 17.84C53.8013 18.6709 52.8087 19.0864 51.6604 19.0864C51.2161 19.0864 50.8006 19.0229 50.4025 18.896C50.0043 18.769 49.5196 18.5209 48.9483 18.1458C48.3713 17.7707 47.9616 17.1706 47.7077 16.3397C47.3384 16.5936 46.8883 16.7147 46.3632 16.7147V13.6391H46.3574ZM50.7776 15.7222C51.0488 15.9473 51.3373 16.0627 51.6547 16.0627C51.9951 16.0627 52.2779 15.9415 52.5145 15.6934C52.751 15.451 52.8664 15.1683 52.8722 14.8451C52.8722 14.4931 52.7568 14.2046 52.5202 13.9623C52.2894 13.7257 52.0009 13.6103 51.6547 13.6103C51.3373 13.6103 51.0488 13.7257 50.7949 13.9623C50.541 14.1931 50.414 14.4931 50.414 14.8451C50.414 15.1971 50.5352 15.4856 50.7833 15.7222H50.7776Z" fill="#002554"/>
<path d="M62.2673 17.926C63.2195 17.0258 63.6984 16.3219 63.6984 15.8198C63.6984 15.5198 63.5426 15.1389 63.231 14.6888L62.4404 13.6848L64.7255 11.7344C65.9489 13.2924 66.5605 14.7292 66.5605 16.0449C66.5605 16.7893 66.3759 17.424 66.0066 17.9491C65.6373 18.4742 65.3026 18.9012 65.0083 19.2244C64.7082 19.5475 64.3678 19.8822 63.9812 20.2284L62.1635 21.7634L60.3516 19.6052L62.2789 17.9318L62.2673 17.926Z" fill="#002554"/>
<path d="M68.6895 5.39648H71.4593V12.9961C71.4593 13.4289 71.7074 13.6424 72.1979 13.6424V16.718C71.165 16.718 70.3225 16.4468 69.6704 15.8986C69.0184 15.3504 68.6895 14.5714 68.6895 13.5559V5.39648Z" fill="#002554"/>
<path d="M72.002 13.6426H77.5589V16.724H72.002V13.6426Z" fill="#002554"/>
<path d="M77.207 13.6426H82.7639V16.7182H77.207V13.6426Z" fill="#002554"/>
<path d="M82.4121 13.6426H87.969V16.7182H82.4121V13.6426Z" fill="#002554"/>
<path d="M87.6172 13.6484H93.1741V16.7241H87.6172V13.6484Z" fill="#002554"/>
<path d="M92.832 13.6488C93.3225 13.6488 93.5706 13.4237 93.5706 12.9678V9.61523H96.3751V12.9332C96.3751 13.4122 96.6116 13.6545 97.0848 13.6545V16.7302C96.629 16.7302 96.225 16.6725 95.8788 16.5513C95.5268 16.4301 95.2325 16.257 94.9844 16.0319C94.4939 16.4993 93.8534 16.7302 93.0571 16.7302H92.8378V13.6545L92.832 13.6488ZM93.8476 18.8941C93.9111 18.7556 94.0323 18.5882 94.2227 18.3863C94.4131 18.1843 94.6728 18.0862 95.0017 18.0862C95.371 18.0862 95.6768 18.2132 95.9192 18.467C96.1616 18.7209 96.2827 19.0325 96.2827 19.3903C96.2827 19.725 96.1558 20.0135 95.9019 20.2674C95.648 20.5213 95.3479 20.6483 95.0017 20.6483C94.6497 20.6483 94.3612 20.5213 94.1361 20.2616C93.8822 20.0078 93.7611 19.7192 93.7611 19.3845C93.7611 19.1884 93.7899 19.021 93.8534 18.8825L93.8476 18.8941Z" fill="#002554"/>
<path d="M96.8202 13.6492H101.05L100.369 12.6625C100.04 12.2528 99.717 12.0451 99.4111 12.0451C99.1399 12.0451 98.8514 12.1374 98.5456 12.3278L97.4954 9.88693C98.2744 9.45992 99.0245 9.24064 99.7401 9.24064C100.663 9.24064 101.454 9.62149 102.123 10.3832L103.681 12.5125C104.356 13.2684 105.13 13.6435 106.001 13.6435L105.464 16.7191H96.8145V13.6377L96.8202 13.6492ZM98.511 5.98613C98.5687 5.84764 98.6898 5.68029 98.8803 5.49564C99.0707 5.31099 99.3361 5.21289 99.6881 5.21289C100.023 5.21289 100.317 5.33984 100.571 5.58797C100.802 5.85341 100.923 6.15924 100.923 6.51123C100.923 6.83438 100.808 7.13444 100.571 7.39411C100.311 7.64801 100.017 7.76918 99.6881 7.76918C99.3592 7.76918 99.0418 7.63646 98.7822 7.37103C98.5225 7.10559 98.3898 6.81707 98.3898 6.50546C98.4129 6.29773 98.459 6.12462 98.5167 5.98036L98.511 5.98613Z" fill="#002554"/>
<path d="M107.877 5.4082H110.676V16.7298H107.877V5.4082Z" fill="#002554"/>
<path fill-rule="evenodd" clip-rule="evenodd" d="M107.326 2.39543H107.652C107.647 2.33957 107.644 2.28342 107.644 2.227C107.644 1.84928 107.739 1.50591 107.935 1.20539C108.125 0.901984 108.379 0.665937 108.696 0.500637C109.012 0.324517 109.354 0.236328 109.719 0.236328C109.921 0.236328 110.121 0.267518 110.32 0.328732C110.529 0.378846 110.717 0.455453 110.878 0.562847L111.071 0.691413L110.377 1.92502L110.155 1.78625C110.091 1.74646 110.036 1.72784 109.989 1.72189L109.97 1.7195L109.951 1.7142C109.897 1.69887 109.837 1.69035 109.769 1.69035C109.564 1.69035 109.424 1.74618 109.323 1.83799C109.234 1.92903 109.182 2.05086 109.182 2.227C109.182 2.28208 109.188 2.33813 109.202 2.39543H111.224V3.83271H107.326V2.39543Z" fill="#002554"/>
</svg>
