<svg width="169" height="20" viewBox="0 0 169 20" fill="none" xmlns="http://www.w3.org/2000/svg">
<g clip-path="url(#clip0_1027_18382)">
<path d="M50.6845 1.72656H54.1844L58.256 17.9476H55.2592L54.5283 14.6577H50.3429L49.6119 17.9476H46.6152L50.6845 1.72656ZM53.9544 12.1545L53.2463 9.02614C52.9867 7.78955 52.7271 6.43068 52.4675 4.94723H52.3764C52.1009 6.53911 51.8344 7.89798 51.5748 9.02614L50.8894 12.1545H53.9544Z" fill="white"/>
<path d="M59.8577 1.72656H62.6472V10.5557L63.5854 10.092C64.0431 9.84515 64.3665 9.59368 64.5578 9.3399C64.749 9.08612 64.9198 8.64778 65.0724 8.03179L65.6667 5.76163H68.479L67.7002 8.70545C67.4862 9.44602 67.2812 10.0066 67.0831 10.385C66.885 10.7634 66.5799 11.1002 66.1677 11.3932L69.3921 17.9522H66.2588L63.8564 12.5998L62.645 13.2019V17.9522H59.8555V1.72656H59.8577Z" fill="white"/>
<path d="M70.9258 1.72656H73.7153V6.68677C74.3551 6.31533 74.9199 6.03156 75.4072 5.82854C75.8945 5.62782 76.3909 5.52631 76.8942 5.52631C77.764 5.52631 78.4563 5.86314 78.9755 6.5345C79.4946 7.20586 79.7542 8.11484 79.7542 9.25684V17.9476H76.9647V9.74594C76.9647 9.17379 76.8919 8.76082 76.7484 8.50704C76.6027 8.25327 76.3636 8.12407 76.0288 8.12407C75.7237 8.12407 75.3844 8.20251 75.011 8.35478C74.6375 8.50935 74.2071 8.71699 73.7198 8.97999V17.9476H70.9303V1.72656H70.9258Z" fill="white"/>
<path d="M84.9352 18.0537C84.0881 17.9061 83.2843 17.703 82.5215 17.44V1.72656H85.311V6.47913C86.5315 5.84468 87.5608 5.52862 88.3988 5.52862C89.3142 5.52862 90.0406 5.85622 90.5825 6.51373C91.1245 7.17125 91.3955 8.08485 91.3955 9.25915V14.1017C91.3955 15.5528 91.0721 16.6118 90.4231 17.2762C89.7742 17.9407 88.7335 18.2729 87.3012 18.2729C86.5702 18.2729 85.7801 18.199 84.933 18.0537H84.9352ZM87.0507 15.7489C87.661 15.7489 88.0754 15.6336 88.2963 15.4006C88.5172 15.1699 88.6288 14.7523 88.6288 14.1501V9.72518C88.6288 9.13918 88.5513 8.7216 88.401 8.47475C88.2485 8.22789 87.998 8.10331 87.6473 8.10331C87.0826 8.10331 86.297 8.37323 85.2905 8.9154V15.5205C85.9007 15.6751 86.4883 15.7512 87.0507 15.7512V15.7489Z" fill="white"/>
<path d="M94.3348 17.2992C93.8087 16.6809 93.5469 15.7396 93.5469 14.473C93.5469 13.2065 93.8338 12.2167 94.4054 11.5984C94.9769 10.9801 95.865 10.671 97.0696 10.671H99.4492V9.32596C99.4492 8.76996 99.3467 8.3916 99.1395 8.19088C98.9346 7.99017 98.5406 7.88866 97.9622 7.88866C97.3839 7.88866 97.0127 7.98556 96.8077 8.17704C96.6028 8.37084 96.498 8.73074 96.498 9.25444V9.41594H93.8907V9.25444C93.8907 7.89558 94.2072 6.91507 94.8403 6.31062C95.4733 5.70848 96.514 5.40625 97.9622 5.40625C99.4105 5.40625 100.506 5.71078 101.153 6.32216C101.801 6.93353 102.125 7.94864 102.125 9.3698V17.9429H100.157L99.768 16.877C98.593 17.7722 97.5114 18.222 96.5208 18.222C95.5917 18.222 94.8631 17.9129 94.337 17.2946L94.3348 17.2992ZM96.4616 15.4443C96.6369 15.6612 96.892 15.7696 97.2267 15.7696C97.7915 15.7696 98.5315 15.4905 99.4447 14.9345L99.4674 12.7104H97.6366C97.1174 12.7104 96.7485 12.835 96.5276 13.0819C96.3068 13.3287 96.1952 13.7394 96.1952 14.3092C96.1952 14.8491 96.2817 15.2275 96.4593 15.4443H96.4616Z" fill="white"/>
<path d="M104.912 5.75999H107.107L107.406 6.872C108.792 5.96071 109.808 5.50391 110.448 5.50391H111.133V8.307H110.539C110.159 8.307 109.703 8.41543 109.177 8.63229C108.651 8.84916 108.159 9.07987 107.702 9.32672V17.9459H104.912V5.75999Z" fill="white"/>
<path d="M117.607 1.72656H120.559L124.081 9.74364H124.127L127.672 1.72656H130.601V17.9476H127.789V11.7831C127.789 10.2535 127.85 8.74698 127.971 7.26353H127.857L124.883 13.984H123.328L120.354 7.24046H120.263C120.37 8.80004 120.422 10.3158 120.422 11.7831V17.9476H117.61V1.72656H117.607Z" fill="white"/>
<path d="M134.464 17.2754C133.792 16.611 133.457 15.5613 133.457 14.124V9.51213C133.457 8.09097 133.801 7.05279 134.486 6.39528C135.172 5.73776 136.269 5.41016 137.779 5.41016C139.198 5.41016 140.261 5.70085 140.969 6.27992C141.677 6.859 142.033 7.72184 142.033 8.86384V9.5352C142.033 10.4926 141.816 11.2124 141.381 11.69C140.947 12.1699 140.234 12.4929 139.243 12.6636L136.155 13.2196V14.124C136.155 14.7723 136.269 15.2129 136.499 15.4459C136.727 15.6766 137.162 15.7943 137.804 15.7943C138.446 15.7943 138.833 15.6905 139.061 15.4805C139.289 15.2729 139.405 14.8899 139.405 14.3339V14.0778H141.989V14.4262C141.989 15.7551 141.655 16.7286 140.983 17.3469C140.311 17.9652 139.23 18.2744 137.736 18.2744C136.242 18.2744 135.135 17.9422 134.466 17.2777L134.464 17.2754ZM138.214 10.7418C138.672 10.6657 138.988 10.5365 139.164 10.3588C139.339 10.1812 139.425 9.90664 139.425 9.5352V9.07148C139.425 8.6539 139.302 8.35629 139.059 8.17864C138.815 8.001 138.396 7.91102 137.802 7.91102C137.162 7.91102 136.727 8.02637 136.497 8.25939C136.269 8.4901 136.153 8.9169 136.153 9.53289V11.1086L138.212 10.7372L138.214 10.7418Z" fill="white"/>
<path d="M145.841 17.1375C145.253 16.5354 144.96 15.6079 144.96 14.3575V8.21606H143.336V5.7821H145.051V3.25586H147.749V5.7821H150.129V8.21606H147.749V13.9399C147.749 14.5282 147.836 14.9204 148.013 15.1211C148.189 15.3218 148.544 15.4234 149.077 15.4234H150.129V18.0419H148.573C147.339 18.0419 146.426 17.7397 145.841 17.1375Z" fill="white"/>
<path d="M152.876 17.2754C152.204 16.611 151.869 15.5613 151.869 14.124V9.51213C151.869 8.09097 152.213 7.05279 152.898 6.39528C153.584 5.73776 154.681 5.41016 156.191 5.41016C157.61 5.41016 158.673 5.70085 159.381 6.27992C160.09 6.859 160.445 7.72184 160.445 8.86384V9.5352C160.445 10.4926 160.229 11.2124 159.794 11.69C159.359 12.1699 158.646 12.4929 157.655 12.6636L154.568 13.2196V14.124C154.568 14.7723 154.681 15.2129 154.911 15.4459C155.139 15.6766 155.574 15.7943 156.216 15.7943C156.858 15.7943 157.245 15.6905 157.473 15.4805C157.701 15.2729 157.817 14.8899 157.817 14.3339V14.0778H160.402V14.4262C160.402 15.7551 160.067 16.7286 159.395 17.3469C158.723 17.9652 157.642 18.2744 156.148 18.2744C154.654 18.2744 153.547 17.9422 152.878 17.2777L152.876 17.2754ZM156.626 10.7418C157.084 10.6657 157.4 10.5365 157.576 10.3588C157.751 10.1812 157.838 9.90664 157.838 9.5352V9.07148C157.838 8.6539 157.715 8.35629 157.471 8.17864C157.227 8.001 156.808 7.91102 156.214 7.91102C155.574 7.91102 155.139 8.02637 154.909 8.25939C154.681 8.4901 154.565 8.9169 154.565 9.53289V11.1086L156.624 10.7372L156.626 10.7418Z" fill="white"/>
<path d="M162.779 5.75999H164.974L165.273 6.872C166.66 5.96071 167.675 5.50391 168.315 5.50391H169V8.307H168.406C168.026 8.307 167.57 8.41543 167.044 8.63229C166.518 8.84916 166.026 9.07987 165.569 9.32672V17.9459H162.779V5.75999Z" fill="white"/>
<path d="M23.1914 10.061L23.4237 9.81641L23.1914 10.061Z" fill="white"/>
<path d="M33.8987 8.9707C33.8555 9.07683 33.8304 9.21525 33.8281 9.36521C33.8327 9.1991 33.8668 9.06529 33.8987 8.9707Z" fill="white"/>
<path d="M33.8304 9.0097C33.8737 8.96356 33.9033 8.92895 33.9238 8.90588L33.9329 8.88281L32.4141 10.5278L33.8304 9.0097Z" fill="white"/>
<path d="M42.0251 12.1552L36.8538 9.31055L31.334 15.3874L33.9504 12.5889V17.8606C33.9504 18.5434 34.3535 19.1479 34.9774 19.4017C35.5399 19.6301 36.1638 19.5263 36.6215 19.1433L42.1686 15.4935C42.7379 15.1198 43.0703 14.4576 43.0362 13.7701C43.002 13.0826 42.6081 12.4597 42.0274 12.1552H42.0251ZM36.4644 16.2064V11.9983L39.9484 13.9132L36.4644 16.2064ZM40.8274 14.3976C40.8274 14.3976 40.841 14.4046 40.8479 14.4092C40.841 14.4046 40.8342 14.4023 40.8274 14.3976Z" fill="white"/>
<path d="M36.4638 9.09669V6.13672L33.9294 8.88213L33.9203 8.9052C33.8998 8.92827 33.8702 8.96288 33.8269 9.00902L32.4105 10.5271L26.5013 16.8508C26.1393 17.2337 25.636 17.4529 25.1168 17.4529H23.1881V13.5909L20.6719 16.244V17.9558C20.6719 19.084 21.5782 19.9999 22.6894 19.9999H25.1146C26.3146 19.9999 27.4828 19.4947 28.3208 18.6064L31.3289 15.3881L36.8487 9.31125L36.4593 9.09669H36.4638ZM33.8269 9.36662C33.8269 9.21435 33.8542 9.07823 33.8975 8.97211C33.8656 9.0667 33.8337 9.20051 33.8269 9.36662Z" fill="#32CD32"/>
<path d="M31.7259 0.000707892C30.1501 0.000707892 28.6176 0.662837 27.52 1.81868L23.1912 6.38207V4.77635C23.1912 2.14167 21.0894 -0.00159918 18.5048 -0.00159918H17.7625C16.5601 -0.00159918 15.3942 0.503649 14.5335 1.41725L0.736316 17.0269C0.0554525 17.7652 -0.156321 18.4965 0.119212 19.1425C0.33554 19.6477 0.818293 19.9661 1.38985 19.9915C1.4149 19.9915 1.43995 19.9961 1.465 19.9961H12.3042C13.2332 19.9961 14.135 19.6062 14.7794 18.9279L20.6749 12.7104V16.2379L23.1912 13.5847V10.0572L23.4234 9.81268L29.3349 3.58128C29.9588 2.92377 30.831 2.54541 31.7259 2.54541C32.951 2.54541 33.9484 3.56975 33.9484 4.82941V8.82525L33.9301 8.87832L36.4646 6.1329V4.82941C36.4646 2.16474 34.3377 -0.00390625 31.7259 -0.00390625V0.000707892ZM12.9645 17.1653C12.7915 17.3476 12.5524 17.4514 12.3042 17.4514H3.73758L6.43827 14.3968L16.3802 3.14986C16.74 2.76689 17.2456 2.54771 17.7625 2.54771H18.5048C19.7003 2.54771 20.6749 3.54668 20.6749 4.77635V9.03289L12.9645 17.163V17.1653Z" fill="white"/>
</g>
<defs>
<clipPath id="clip0_1027_18382">
<rect width="169" height="20" fill="white"/>
</clipPath>
</defs>
</svg>
