<svg width="114" height="114" viewBox="0 0 114 114" fill="none" xmlns="http://www.w3.org/2000/svg">
<circle cx="57" cy="57" r="56.5" fill="#CB0E0E"/>
<path d="M101.866 43.716C105.532 40.393 103.014 34.2945 98.0851 34.5491L84.1675 35.2621C81.0593 35.4212 78.5029 32.8494 78.6614 29.7365L79.3719 15.7697C79.6256 10.8234 73.5423 8.29616 70.2373 11.9693L60.8934 22.352C58.8128 24.6692 55.1907 24.6692 53.1037 22.352L43.7661 11.9756C40.4549 8.29616 34.3779 10.8234 34.6316 15.7761L35.3421 29.7428C35.5006 32.8621 32.9379 35.4276 29.8359 35.2684L15.9184 34.5555C10.9896 34.3008 8.47122 40.3993 12.1314 43.7223L22.4775 53.0929C24.7866 55.1809 24.7866 58.8159 22.4775 60.9102L12.1314 70.2808C8.46487 73.6038 10.9832 79.7023 15.9184 79.4477L29.8359 78.7347C32.9442 78.5756 35.5006 81.1474 35.3421 84.2603L34.6316 98.2271C34.3779 103.173 40.4612 105.701 43.7661 102.028L53.1037 91.6448C55.1907 89.3276 58.8128 89.3276 60.8934 91.6448L70.231 102.028C73.5423 105.707 79.6193 103.18 79.3656 98.2271L78.6551 84.2603C78.4965 81.141 81.0593 78.5756 84.1612 78.7347L98.0787 79.4477C103.008 79.7023 105.526 73.5975 101.859 70.2808L91.5133 60.9102C89.2042 58.8222 89.2042 55.1873 91.5133 53.0929L101.866 43.716Z" fill="black" fill-opacity="0.1"/>
<path d="M22.043 63.0572V42.5117H36.0677V46.5446H27.0088V50.758H35.1748V54.8009H27.0088V63.0572H22.043Z" fill="white"/>
<path d="M40.4466 63.0572H35.1096L42.0417 42.5117H48.6527L55.5848 63.0572H50.2478L45.4225 47.6882H45.2619L40.4466 63.0572ZM39.7343 54.9714H50.8899V58.7434H39.7343V54.9714Z" fill="white"/>
<path d="M57.7969 63.0572V42.5117H62.7627V51.1994H63.0336L69.8252 42.5117H75.6738L68.3906 51.6809L75.8042 63.0572H69.8653L64.749 54.9814L62.7627 57.4894V63.0572H57.7969Z" fill="white"/>
<path d="M77.6326 63.0572V42.5117H91.9582V46.5446H82.5984V50.758H91.2259V54.8009H82.5984V59.0243H91.9582V63.0572H77.6326Z" fill="white"/>
<path d="M39.4072 66.6078V81.3513H36.3836L30.5165 72.8421H30.4229V81.3513H26.8594V66.6078H29.9261L35.7285 75.1026H35.8509V66.6078H39.4072Z" fill="black"/>
<path d="M41.6479 81.3513V66.6078H51.928V69.5018H45.2114V72.5254H51.4025V75.4266H45.2114V78.4574H51.928V81.3513H41.6479Z" fill="black"/>
<path d="M57.6944 81.3513L53.4038 66.6078H57.3417L59.5662 76.2689H59.6886L62.2298 66.6078H65.4405L67.9818 76.2905H68.1042L70.3359 66.6078H74.2665L69.9831 81.3513H66.5492L63.8928 72.4102H63.7776L61.1212 81.3513H57.6944Z" fill="black"/>
<path d="M83.5298 71.028C83.4818 70.5001 83.2682 70.0897 82.8891 69.797C82.5147 69.4994 81.9796 69.3506 81.2837 69.3506C80.823 69.3506 80.439 69.4106 80.1319 69.5306C79.8247 69.6506 79.5944 69.8162 79.4408 70.0273C79.2872 70.2337 79.208 70.4713 79.2032 70.74C79.1936 70.9608 79.2368 71.1552 79.3328 71.3232C79.4336 71.4911 79.5776 71.6399 79.7647 71.7695C79.9567 71.8943 80.1871 72.0047 80.4558 72.1006C80.7246 72.1966 81.027 72.2806 81.3629 72.3526L82.6299 72.6406C83.3594 72.799 84.0025 73.0101 84.5593 73.2741C85.1208 73.538 85.5911 73.8524 85.9703 74.2172C86.3542 74.5819 86.6446 75.0018 86.8413 75.477C87.0381 75.9521 87.1389 76.4848 87.1437 77.0751C87.1389 78.0062 86.9037 78.8053 86.4382 79.4724C85.9727 80.1395 85.3032 80.6506 84.4297 81.0058C83.561 81.3609 82.5123 81.5385 81.2837 81.5385C80.0503 81.5385 78.9752 81.3537 78.0586 80.9842C77.1419 80.6146 76.4292 80.0531 75.9205 79.2996C75.4117 78.5461 75.1502 77.5935 75.1358 76.4416H78.5481C78.5769 76.9168 78.7041 77.3127 78.9296 77.6295C79.1552 77.9462 79.4648 78.1862 79.8583 78.3494C80.2567 78.5125 80.7174 78.5941 81.2405 78.5941C81.7205 78.5941 82.1284 78.5293 82.4644 78.3998C82.8051 78.2702 83.0667 78.0902 83.249 77.8598C83.4314 77.6295 83.525 77.3655 83.5298 77.0679C83.525 76.7896 83.4386 76.552 83.2706 76.3552C83.1027 76.1537 82.8435 75.9809 82.4931 75.8369C82.1476 75.6881 81.7061 75.5514 81.1685 75.4266L79.628 75.0666C78.3513 74.7739 77.3459 74.3011 76.6116 73.6484C75.8773 72.9909 75.5125 72.103 75.5173 70.9848C75.5125 70.0729 75.7573 69.2738 76.2516 68.5875C76.746 67.9012 77.4299 67.3661 78.3033 66.9822C79.1768 66.5982 80.1727 66.4062 81.2909 66.4062C82.4332 66.4062 83.4242 66.6006 84.2641 66.9894C85.1088 67.3733 85.7639 67.9132 86.2294 68.6091C86.695 69.305 86.9325 70.1113 86.9421 71.028H83.5298Z" fill="black"/>
<path d="M59.527 16.3379L59.0655 30.5933H54.9424L54.4809 16.3379H59.527ZM56.9989 37.1743C56.2833 37.1743 55.668 36.9201 55.1531 36.4118C54.6448 35.9036 54.3906 35.2883 54.3906 34.566C54.3906 33.857 54.6448 33.2518 55.1531 32.7502C55.668 32.2419 56.2833 31.9877 56.9989 31.9877C57.6878 31.9877 58.2931 32.2419 58.8147 32.7502C59.3431 33.2518 59.6072 33.857 59.6072 34.566C59.6072 35.0475 59.4835 35.4856 59.2361 35.8801C58.9953 36.2747 58.6776 36.5891 58.283 36.8232C57.8951 37.0572 57.4671 37.1743 56.9989 37.1743Z" fill="white"/>
<path d="M31.8367 97.6639H28.5176L32.8286 84.8867H36.94L41.2511 97.6639H37.932L34.9311 88.106H34.8313L31.8367 97.6639ZM31.3937 92.6354H38.3313V94.9812H31.3937V92.6354Z" fill="black"/>
<path d="M42.6268 97.6639V84.8867H45.715V95.1559H51.0305V97.6639H42.6268Z" fill="black"/>
<path d="M52.6292 97.6639V84.8867H61.5383V87.3947H55.7175V90.0151H61.0829V92.5293H55.7175V95.1559H61.5383V97.6639H52.6292Z" fill="black"/>
<path d="M63.4724 97.6639V84.8867H68.7504C69.7071 84.8867 70.5327 85.0593 71.2273 85.4045C71.926 85.7456 72.4647 86.2364 72.8431 86.8769C73.2216 87.5133 73.4109 88.2682 73.4109 89.1416C73.4109 90.0275 73.2175 90.7804 72.8307 91.4001C72.4439 92.0157 71.8948 92.4857 71.1836 92.8101C70.4724 93.1303 69.6301 93.2905 68.6569 93.2905H65.3191V90.8573H68.0829C68.5487 90.8573 68.9376 90.797 69.2496 90.6764C69.5657 90.5516 69.8048 90.3644 69.967 90.1149C70.1292 89.8612 70.2103 89.5368 70.2103 89.1416C70.2103 88.7465 70.1292 88.42 69.967 88.1621C69.8048 87.9001 69.5657 87.7046 69.2496 87.5757C68.9335 87.4426 68.5446 87.376 68.0829 87.376H66.5606V97.6639H63.4724ZM70.6658 91.8243L73.8476 97.6639H70.4786L67.3592 91.8243H70.6658Z" fill="black"/>
<path d="M74.6867 87.3947V84.8867H85.4862V87.3947H81.6119V97.6639H78.5673V87.3947H74.6867Z" fill="black"/>
</svg>
