<svg fill="none" xmlns="http://www.w3.org/2000/svg" viewBox="1.43 3.18 21.63 17.63" width="18" height="18">
<path fill-rule="evenodd" clip-rule="evenodd" d="M3.24414 6.8V6.8C3.24414 7.4 3.54414 7.9 4.04414 8.3L10.0441 12.4C11.4441 13.3 13.1441 13.3 14.5441 12.4L20.5441 8.4C20.9441 7.9 21.2441 7.4 21.2441 6.8V6.8C21.2441 5.8 20.4441 5 19.4441 5H5.04414C4.04414 5 3.24414 5.8 3.24414 6.8Z" stroke="white" stroke-width="1.5" stroke-linecap="round" stroke-linejoin="round"/>
<path d="M3.24414 7V17C3.24414 18.1 4.14414 19 5.24414 19H19.2441C20.3441 19 21.2441 18.1 21.2441 17V7" stroke="white" stroke-width="1.5" stroke-linecap="round" stroke-linejoin="round"/>
<path d="M3.83203 18.4104L9.92603 12.3164" stroke="white" stroke-width="1.5" stroke-linecap="round" stroke-linejoin="round"/>
<path d="M14.6035 12.3594L20.6555 18.4114" stroke="white" stroke-width="1.5" stroke-linecap="round" stroke-linejoin="round"/>
</svg>
