<svg width="21" height="20" viewBox="0 0 21 20" fill="none" xmlns="http://www.w3.org/2000/svg">
<path d="M1.24414 3C1.24414 1.89543 2.13957 1 3.24414 1H6.52338C6.95381 1 7.33595 1.27543 7.47206 1.68377L8.96988 6.17721C9.12725 6.64932 8.91352 7.16531 8.46841 7.38787L6.21115 8.5165C7.31339 10.9612 9.28292 12.9308 11.7276 14.033L12.8563 11.7757C13.0788 11.3306 13.5948 11.1169 14.0669 11.2743L18.5604 12.7721C18.9687 12.9082 19.2441 13.2903 19.2441 13.7208V17C19.2441 18.1046 18.3487 19 17.2441 19H16.2441C7.95987 19 1.24414 12.2843 1.24414 4V3Z" stroke="#C7D2FE" stroke-width="2" stroke-linecap="round" stroke-linejoin="round"/>
</svg>
