<svg width="25" height="24" viewBox="0 0 25 24" fill="none" xmlns="http://www.w3.org/2000/svg">
<path d="M15.4638 13.2344C15.3258 13.2344 15.2138 13.3464 15.2148 13.4844C15.2148 13.6224 15.3268 13.7344 15.4648 13.7344C15.6028 13.7344 15.7148 13.6224 15.7148 13.4844C15.7148 13.3464 15.6028 13.2344 15.4638 13.2344" stroke="white" stroke-width="1.5" stroke-linecap="round" stroke-linejoin="round"/>
<path d="M8.98143 13.1484C8.84343 13.1484 8.73143 13.2604 8.73243 13.3984C8.73243 13.5364 8.84443 13.6484 8.98243 13.6484C9.12043 13.6484 9.23243 13.5364 9.23243 13.3984C9.23243 13.2604 9.12043 13.1484 8.98143 13.1484" stroke="white" stroke-width="1.5" stroke-linecap="round" stroke-linejoin="round"/>
<path d="M18.299 5.24888C18.445 5.10188 18.444 4.86488 18.298 4.71888C18.151 4.57288 17.914 4.57288 17.768 4.71988C17.622 4.86688 17.622 5.10388 17.768 5.24988C17.914 5.39588 18.152 5.39588 18.299 5.24888" stroke="white" stroke-width="1.5" stroke-linecap="round" stroke-linejoin="round"/>
<path d="M15.5289 16.406C14.5649 16.759 13.4649 16.969 12.2449 16.969C11.0249 16.969 9.92494 16.759 8.96094 16.406" stroke="white" stroke-width="1.5" stroke-linecap="round" stroke-linejoin="round"/>
<path fill-rule="evenodd" clip-rule="evenodd" d="M4.01009 13.8123C3.83909 13.7243 3.67509 13.6243 3.53409 13.4923C2.71209 12.7183 2.67209 11.4253 3.44609 10.6033C4.21109 9.79028 5.48409 9.74528 6.30809 10.4943C7.80709 9.42028 9.89909 8.73828 12.2441 8.73828C14.5891 8.73828 16.6811 9.42028 18.1801 10.4933C19.0031 9.74428 20.2761 9.78928 21.0421 10.6023C21.8161 11.4243 21.7761 12.7183 20.9541 13.4913C20.8141 13.6233 20.6491 13.7243 20.4781 13.8113C20.5181 14.0373 20.5451 14.2653 20.5451 14.4963C20.5451 17.5883 16.8851 20.2553 12.2441 20.2553C7.60309 20.2553 3.94309 17.5883 3.94309 14.4963C3.94309 14.2653 3.97009 14.0373 4.01009 13.8123Z" stroke="white" stroke-width="1.5" stroke-linecap="round" stroke-linejoin="round"/>
<path d="M12.2441 8.73861L12.8731 5.93361C13.1111 4.87261 14.1521 4.19661 15.2181 4.41061L17.6731 4.90261" stroke="white" stroke-width="1.5" stroke-linecap="round" stroke-linejoin="round"/>
</svg>
