<!-- tiktok.svg -->
<svg xmlns="http://www.w3.org/2000/svg" viewBox="0 0 48 48" width="18" height="18">
    <path fill="white" d="M38.08 15.85c-2.01-.06-3.83-1.02-5.2-2.31-0.75-0.71-1.34-1.57-1.73-2.52-0.4-0.95-0.6-1.98-0.6-3.02h-5.59v20.83c0 3.51-2.1 5.58-4.7 5.58-0.63 0.01-1.25-0.1-1.84-0.32-0.59-0.22-1.13-0.55-1.6-0.97-0.47-0.42-0.87-0.92-1.15-1.48-0.28-0.56-0.44-1.17-0.44-1.79s0.15-1.23 0.44-1.79c0.28-0.56 0.68-1.06 1.15-1.48 0.47-0.42 1.01-0.75 1.6-0.97 0.59-0.22 1.21-0.33 1.84-0.32 0.52 0 1.03 0.07 1.52 0.22v-5.69c-0.5-0.11-1.01-0.17-1.52-0.17-2.03 0-3.99 0.6-5.66 1.72-1.67 1.12-2.98 2.71-3.77 4.58-0.79 1.87-0.99 3.94-0.58 5.94 0.41 2 1.4 3.85 2.84 5.29 1.44 1.44 3.29 2.43 5.29 2.84 2 0.41 4.07 0.21 5.94-0.58 1.87-0.79 3.46-2.1 4.58-3.77 1.12-1.67 1.72-3.63 1.72-5.66v-10.89c2.17 1.51 4.8 2.2 7.52 2.26v-5.23z"/>
</svg>
