<svg width="25" height="24" viewBox="0 0 25 24" fill="none" xmlns="http://www.w3.org/2000/svg">
    <path d="M20.1941 9.35156C20.1941 8.93735 19.8584 8.60156 19.4441 8.60156C19.0299 8.60156 18.6941 8.93735 18.6941 9.35156H20.1941ZM3.84979 16.1092C3.60548 15.7747 3.13627 15.7016 2.80178 15.9459C2.46729 16.1902 2.39418 16.6594 2.63849 16.9939L3.84979 16.1092ZM3.11671 15.8125C2.70852 15.8828 2.43467 16.2708 2.50505 16.679C2.57542 17.0872 2.96338 17.361 3.37157 17.2907L3.11671 15.8125ZM5.94414 15.6516L6.18243 16.3627C6.428 16.2804 6.61375 16.0772 6.67374 15.8253C6.73374 15.5733 6.65949 15.3083 6.47736 15.1241L5.94414 15.6516ZM5.04414 4.85156L5.70472 4.49641C5.58211 4.26835 5.35053 4.11967 5.09213 4.1031C4.83372 4.08653 4.58505 4.20443 4.43432 4.41496L5.04414 4.85156ZM10.4441 9.35156L10.267 10.0803C10.4864 10.1337 10.7181 10.0853 10.8978 9.94878C11.0776 9.81223 11.1863 9.60197 11.1937 9.37636L10.4441 9.35156ZM18.5441 6.65156L17.9179 7.06433C18.0567 7.27486 18.292 7.40156 18.5441 7.40156V6.65156ZM21.2441 6.65156L21.8682 7.06759C22.0216 6.83745 22.0359 6.54154 21.9054 6.29767C21.7749 6.0538 21.5207 5.90156 21.2441 5.90156V6.65156ZM18.8201 8.93554C18.5903 9.28018 18.6835 9.74584 19.0281 9.9756C19.3728 10.2054 19.8384 10.1122 20.0682 9.76759L18.8201 8.93554ZM18.6941 9.35156C18.6941 12.3635 17.8342 14.8725 16.2943 16.6178C14.7646 18.3515 12.5034 19.4016 9.54414 19.4016V20.9016C12.8848 20.9016 15.5737 19.7016 17.419 17.6103C19.254 15.5306 20.1941 12.6396 20.1941 9.35156H18.6941ZM9.54414 19.4016C7.88872 19.4016 6.78155 18.974 5.94873 18.3847C5.09301 17.7792 4.48186 16.9746 3.84979 16.1092L2.63849 16.9939C3.26342 17.8495 4.00227 18.8449 5.0823 19.6092C6.18524 20.3896 7.59956 20.9016 9.54414 20.9016V19.4016ZM3.37157 17.2907C3.39533 17.2866 3.41372 17.2822 3.42007 17.2806C3.42872 17.2786 3.43572 17.2767 3.43992 17.2756C3.44832 17.2733 3.45516 17.2713 3.45871 17.2703C3.46626 17.2681 3.47314 17.266 3.47759 17.2646C3.48715 17.2616 3.49833 17.258 3.50966 17.2544C3.53289 17.2469 3.56469 17.2365 3.60295 17.2239C3.67987 17.1985 3.78745 17.1629 3.91487 17.1205C4.16993 17.0357 4.50697 16.9232 4.84274 16.811C5.1786 16.6988 5.51351 16.5867 5.76444 16.5027C5.88992 16.4607 5.9944 16.4257 6.06752 16.4012C6.10408 16.3889 6.1328 16.3793 6.15239 16.3728C6.16218 16.3695 6.16969 16.367 6.17475 16.3653C6.17728 16.3644 6.1792 16.3638 6.18048 16.3634C6.18113 16.3631 6.18161 16.363 6.18194 16.3629C6.1821 16.3628 6.18222 16.3628 6.18231 16.3627C6.18235 16.3627 6.18238 16.3627 6.1824 16.3627C6.18242 16.3627 6.18243 16.3627 5.94414 15.6516C5.70585 14.9404 5.70584 14.9404 5.70582 14.9404C5.7058 14.9404 5.70577 14.9405 5.70573 14.9405C5.70565 14.9405 5.70553 14.9405 5.70537 14.9406C5.70505 14.9407 5.70457 14.9409 5.70392 14.9411C5.70264 14.9415 5.70073 14.9421 5.69821 14.943C5.69316 14.9447 5.68566 14.9472 5.67589 14.9505C5.65633 14.957 5.62764 14.9666 5.59111 14.9789C5.51804 15.0033 5.41363 15.0383 5.28824 15.0803C5.03745 15.1642 4.70281 15.2762 4.36729 15.3884C4.03169 15.5005 3.69554 15.6127 3.44163 15.6971C3.31456 15.7394 3.20872 15.7745 3.13401 15.799C3.09647 15.8114 3.06791 15.8207 3.04883 15.8269C3.039 15.8301 3.03353 15.8318 3.03129 15.8325C3.02983 15.833 3.03201 15.8323 3.03612 15.8311C3.03795 15.8305 3.04338 15.8289 3.05068 15.827C3.05434 15.826 3.06087 15.8243 3.06913 15.8223C3.07509 15.8208 3.09318 15.8165 3.11671 15.8125L3.37157 17.2907ZM6.47736 15.1241C3.73355 12.3502 3.52831 8.25715 5.65396 5.28816L4.43432 4.41496C1.89197 7.96597 2.14273 12.8749 5.41092 16.179L6.47736 15.1241ZM4.38356 5.20672C5.56364 7.40163 7.78333 9.47672 10.267 10.0803L10.6213 8.62278C8.65295 8.14441 6.73865 6.41949 5.70472 4.49641L4.38356 5.20672ZM11.1937 9.37636C11.2313 8.24037 11.6321 7.30124 12.2683 6.65112C12.9005 6.00511 13.8062 5.60156 14.9441 5.60156V4.10156C13.4311 4.10156 12.1298 4.64802 11.1962 5.602C10.2667 6.55189 9.74298 7.86276 9.69455 9.32677L11.1937 9.37636ZM14.9441 5.60156C15.7498 5.60156 16.34 5.75447 16.793 5.99623C17.2444 6.23713 17.6059 6.59092 17.9179 7.06433L19.1703 6.23879C18.7494 5.60021 18.2134 5.05399 17.4993 4.67289C16.7868 4.29265 15.9435 4.10156 14.9441 4.10156V5.60156ZM18.5441 7.40156H21.2441V5.90156H18.5441V7.40156ZM20.6201 6.23554L18.8201 8.93554L20.0682 9.76759L21.8682 7.06759L20.6201 6.23554Z" fill="white"/>
</svg>
