<svg width="25" height="20" viewBox="0 0 25 20" fill="none" xmlns="http://www.w3.org/2000/svg">
<path d="M7.79214 19.5018C16.8481 19.5018 21.8021 11.9988 21.8021 5.49175C21.8021 5.27875 21.8021 5.06675 21.7871 4.85575C22.751 4.15836 23.583 3.29488 24.2441 2.30575C23.3456 2.7044 22.3923 2.96597 21.4161 3.08175C22.4443 2.46637 23.2137 1.49827 23.5811 0.357755C22.6145 0.931286 21.5569 1.33543 20.4541 1.55275C19.7116 0.7638 18.7298 0.241488 17.6605 0.0665994C16.5913 -0.10829 15.4942 0.0739892 14.539 0.585244C13.5838 1.0965 12.8236 1.90825 12.376 2.89494C11.9285 3.88163 11.8185 4.98828 12.0631 6.04375C10.1055 5.9459 8.19022 5.43746 6.44177 4.55143C4.69332 3.6654 3.15073 2.4216 1.91414 0.900755C1.28463 1.98482 1.09192 3.26804 1.37524 4.48919C1.65856 5.71034 2.39661 6.77762 3.43914 7.47375C2.65535 7.45005 1.88877 7.23808 1.20414 6.85575V6.91875C1.20445 8.05556 1.59794 9.15726 2.31787 10.037C3.03781 10.9168 4.03988 11.5205 5.15414 11.7458C4.42929 11.9432 3.66883 11.9719 2.93114 11.8298C3.24574 12.8082 3.85825 13.6638 4.68302 14.277C5.50779 14.8902 6.50358 15.2303 7.53114 15.2498C6.51015 16.0519 5.34105 16.645 4.09069 16.995C2.84033 17.3451 1.53323 17.4452 0.244141 17.2898C2.496 18.7352 5.11628 19.5021 7.79214 19.4988" fill="#C7D2FE"/>
</svg>
